<?xml version="1.0" encoding="utf-8"?>
<!-- Generator: Adobe Illustrator 21.0.0, SVG Export Plug-In . SVG Version: 6.00 Build 0)  -->
<svg xmlns="http://www.w3.org/2000/svg" xmlns:xlink="http://www.w3.org/1999/xlink" version="1.1" id="Слой_1" x="0px" y="0px" viewBox="0 0 127.6 27.9" style="enable-background:new 0 0 127.6 27.9;" xml:space="preserve" width="230" height="230">
<style type="text/css">
	.st0{fill:#14A0FF;}
	.st1{fill:#FFFFFF;}
</style>
<title>logo_dark_bg</title>
<g id="Слой_2">
	<g id="Layer_1">
		<path class="st0" d="M73.8,8.4C74.9,3.8,72.2,0,65.3,0H50.6l-5.5,22.4l3.2,5.5h10.5c6.9,0,12.2-3.2,13.6-8.8    c0.7-2.9-0.1-4.9-1.9-5.9v-0.1C72.1,12.1,73.4,10.4,73.8,8.4z M64.8,18.9c-0.3,1.2-1.1,2.4-4.3,2.4h-6.7l1.2-4.8h6.7    C64.8,16.5,65.1,17.7,64.8,18.9L64.8,18.9z M66.1,8.5c-0.2,0.9-0.9,2-3.8,2h-6l1-3.9h6C66.2,6.6,66.4,7.5,66.1,8.5z"/>
		<polygon class="st0" points="83.1,17.1 96.5,17.1 98.1,10.5 84.7,10.5 85.8,6.6 99,6.6 100.5,0 78.8,0 71.9,27.9 96.5,27.9     98.1,21.3 82.1,21.3   "/>
		<polygon class="st0" points="102.4,0 100.8,6.6 108.9,6.6 103.6,27.9 112,27.9 117.3,6.6 125.9,6.6 127.6,0   "/>
		<path class="st1" d="M8.8,27.9H0.3L4,13l0.8-2.3L2.6,13l-2.5,2.5L0,8.1L8.8,0h6.9L8.8,27.9z"/>
		<path class="st1" d="M39.5,16.3l-2.7-4.6L50,0H37.7l-5,4.8l0,0l-17,15.6l-8.1,7.5h11.6l8.7-7.8l2.9,5c1,1.3,2.4,2.8,8.4,2.8h7    L39.5,16.3L39.5,16.3z"/>
		<path class="st1" d="M31.8,3.3L31.8,3.3c-1.5-2.2-4-3.4-6.6-3.3h-9.1l6.8,11.5L31.8,3.3z"/>
	</g>
</g>
</svg>
