<?xml version="1.0" encoding="UTF-8"?> <svg xmlns="http://www.w3.org/2000/svg" viewBox="0 0 150 150" data-id="1a" data-version="2"><title>Bally Bet</title> <defs><style> .cls-BB-1a-svg-logo-1 { fill: #000001; } .cls-BB-1a-svg-logo-2 { fill: #ea0001; } </style></defs> <g id="Layer_2" data-name="Layer 2"><g id="Layer_1-2" data-name="Layer 1"><g id="BallyBet_logo_cube"><rect id="cube" class="cls-BB-1a-svg-logo-1" width="150" height="150"></rect><polygon id="BB_E" class="cls-BB-1a-svg-logo-2" points="79.56 95.07 79.56 91.76 74.31 91.76 73.21 91.76 70.61 91.76 70.61 110.14 73.21 110.14 74.31 110.14 79.56 110.14 79.56 106.4 74.31 106.4 74.31 102.35 78.92 102.35 78.92 99.04 74.31 99.04 74.31 95.07 79.56 95.07"></polygon><polygon id="BB_T" class="cls-BB-1a-svg-logo-2" points="91.79 91.76 88.46 91.76 84.27 91.76 80.93 91.76 80.93 95.07 84.27 95.07 84.27 110.14 88.46 110.14 88.46 95.07 91.79 95.07 91.79 91.76"></polygon><path id="BB_B" class="cls-BB-1a-svg-logo-2" d="M65.89,100.6c2-.63,2.52-1.82,2.52-4.11s-.84-4.73-4-4.73H58.09v18.38h6.66c4.15-.62,4.17-3.86,4.17-5S68.79,101.31,65.89,100.6Zm-1,4.34A1.89,1.89,0,0,1,63,106.83H61.77v-4.7H63A1.89,1.89,0,0,1,64.85,104Zm0-6.87A1.89,1.89,0,0,1,63,100H61.77v-4.7H63a1.89,1.89,0,0,1,1.89,1.89Z"></path><path id="BB_BigB" class="cls-BB-1a-svg-logo-2" d="M46.6,48.11c-7-.26-11.81,1.15-19.18,16.51-6.37,15.21-7.78,18.82-11.49,18.82s-4-2.93-4-5.54.67-11.6,11.86-23.26S46.08,43.2,50,43.78s8.47,2.24,7.84,6.74-2.82,8.41-15,11.86c-2.67.78-2.2,1.77-.63,2.61s4.55,3.08,3.92,6.79-2.35,9.41-7.89,9.15c2-4.24-1.57-6-3.08-6a3.22,3.22,0,0,0-3.3,3.42c0,2.41,1.73,6.22,8.1,6.22s12.59-3.34,13.48-12.12c.53-4.65-4.07-7.89-5.74-8.36,3,0,17.34-2.61,17.66-13.69.31-10.51-14.9-10.5-16.51-10.5s-18.14.42-29.63,12S7.15,73.4,7.15,77.32s1.57,10.5,8.72,10.5,10.77-4,15.26-13.63S38.76,51.67,46.7,49.26A.59.59,0,0,0,46.6,48.11Z"></path><path id="BB_ally" class="cls-BB-1a-svg-logo-2" d="M142.15,59.75l-5.89.31a.68.68,0,0,0-.59.4c-1.15,2.47-7.83,16.34-12.94,17.21-1.92.41,4.24-10.83,7.36-17a.59.59,0,0,0-.56-.85l-5.92.3a.52.52,0,0,0-.46.32c-1.09,2.49-8.7,19.38-14.9,19.52a2.62,2.62,0,0,1-2.76-3c3.39-1.83,16.85-16.15,16.45-24.2-.23-3.92-2.06-4.72-3.78-4.72s-6.61.91-12.57,10.11c-5.75,8-7,15.72-6.77,19-1.46,1.15-3.92,2.77-6.29,2.77a4.53,4.53,0,0,1-4.21-4.65C94.3,70.32,107.47,55,108,45.81c.2-4.76-3.08-4.75-3.81-4.75s-6-.16-14.68,11.55-8.68,21-8.31,23.3c-1.15,1.31-4,3.61-5.67,3.61-2.38.17-.8-3.89,3-10.79a.89.89,0,0,0-.84-1.31l-5.4.35a1,1,0,0,0-.83.56c-1.07,2.22-5.47,10.84-9,10.79C60.89,79.1,60.24,77,65.25,69c2.67-4,6.4-6.74,7.66-6.84,1.12,3.11,2.82,3.21,4.18,3.21a2.78,2.78,0,0,0,3-2.95c0-2.3-2.4-3.61-5.43-3.61S66.24,59.92,61,65.15s-7,10.92-7,13.74,1.46,5.69,5.22,5.69,6.77-2.5,8.65-4.93a4.92,4.92,0,0,0,5,4.93c2.85,0,6.48-1.67,9.28-4.85.7,3,3.47,4.85,7.78,4.85s7-1.77,9.7-4c.91,2.51,2.61,4,5.9,4s6.48-1.43,9.72-5c.08,3.29,2,3.92,3.68,3.92s3.87.05,8-4.16l-7.58,16.13a.78.78,0,0,0,.75,1.11l5.61-.38a.7.7,0,0,0,.56-.39l16.52-35.1A.67.67,0,0,0,142.15,59.75ZM117.78,52c2,.41-3.91,12.49-11.86,20.4C107.4,61.87,115.74,51.57,117.78,52Zm-14.41-6.79c2.59.51-9.17,20.38-15.05,25.39C90.2,57.49,100.78,44.68,103.37,45.19Z"></path></g></g></g> </svg> 