<?xml version="1.0" encoding="UTF-8"?> <svg xmlns="http://www.w3.org/2000/svg" viewBox="0 0 176 176" data-id="1a" data-version="2"><defs><style> .cls-BMGM-1a-svg-logo-1 { fill: #fff; } .cls-BMGM-1a-svg-logo-2 { fill: #beaa79; } </style></defs><g id="Layer_2" data-name="Layer 2"><g id="Layer_1-2" data-name="Layer 1"><g id="BetMGM_logo_circle"><circle id="circle" class="cls-BMGM-1a-svg-logo-1" cx="88" cy="88" r="88"></circle><path id="BMGM_lion11" class="cls-BMGM-1a-svg-logo-2" d="M40.69,76.64S19.53,81.71,8.9,72.86c0,0-1.4,25.87,9.38,40.67l1.46,0S12.21,89.69,40.69,76.64Z"></path><path id="BMGM_lion09" class="cls-BMGM-1a-svg-logo-2" d="M51,60.75c3,3.87,4.16,4.52,1.85.28A9.16,9.16,0,0,0,49,57.19c-1.59-.79-3.7-1-6.41-1.06C38.24,56,38,54.29,34.44,52.68c-1-.47-6.89-2.34-10.56-.29s-7.24,6.46-13.32,7.75c-6.52,1,.59,2.29,2.58,1.65,1.61-.52,3.72-3.43,6.21-3.34,1.66,0,2.36,1.07,1.31,1.83s-7.55,1.5-6.08,2.42c.85.53,2.11,1,5.62.54,2-.24,5.35-2.12,7.17-3.44,2.88-2.1,16.29-1.91,19.13-1.24C48.1,58.93,50.2,59.71,51,60.75Z"></path><path id="BMGM_lion08" class="cls-BMGM-1a-svg-logo-2" d="M65.66,47.43c4,1.57,3.64,0,.35-2-1.57-1-2.07-2.71-4-3.68-3.87-1.94-1.41,1.76-1.41,1.76A11.05,11.05,0,0,0,65.66,47.43Z"></path><path id="BMGM_lion03" class="cls-BMGM-1a-svg-logo-2" d="M73.9,18.16c-11.34.76-21,9.13-21.57,11.85,3.81.58,12,7.41,16.74,11.91,3.78,3.64-1.46,6.7,1.47,7.27,1.47.29,8.59.19,7.55,5.48,5,.58,8.21,1,8.49,4.82-.56,3-1,5.17-7.26,4.82-6.91-.39-13.8-1.55-14.22-1s6.6,3.13,9.26,3.13,5.82,2.35,7.36,3.78,4.71-.8,5.55-4.65,4.88-2.06,6.14.51,0,9.33,1.8,11,23.81,24.35,5.16,70.27l2.42-.92c13.18-14.68,18.66-37.5,17.73-57.6-1.07-23,.25-38.12-24.15-62.72a27.81,27.81,0,0,0-15.71-7.74A28.36,28.36,0,0,0,73.9,18.16Z"></path><path class="cls-BMGM-1a-svg-logo-2" d="M88,0H86.91c25.69,22.41,42.65,53.05,42.65,86.85,0,35-17,66.52-44.19,89.1.88,0,1.75,0,2.63,0A88,88,0,0,0,88,0Z"></path><path class="cls-BMGM-1a-svg-logo-2" d="M53.8,20.9S66.65,9.47,80.93,12.63a92,92,0,0,0-13-10.32A87.41,87.41,0,0,0,52.43,7.49,38.11,38.11,0,0,1,53.8,20.9Z"></path><path class="cls-BMGM-1a-svg-logo-2" d="M25.7,25.85c.05.24.1.48.13.74.84,5.36.91,4.4,5.63,3.5,2.45-.84,4.9-1.11,9.23-.53,1.86.25,3.85.22,5-3.14a23.88,23.88,0,0,0,.87-16.06A88.27,88.27,0,0,0,25.7,25.85Z"></path><path class="cls-BMGM-1a-svg-logo-2" d="M26.26,150.7c-.52-12.43-12-28.89-23.82-42.06A87.87,87.87,0,0,0,26.26,150.7Z"></path><path class="cls-BMGM-1a-svg-logo-2" d="M35.78,107.14c.84-12.86,10.62-23.42,13.69-25.85l-.56-.86S32.58,93.78,32,111.78c-.48,15.19,2,31-.13,44a88.21,88.21,0,0,0,23.17,13.83c3.61-5.74,6.33-12.88,1.38-21.94C48.34,132.84,34.88,121,35.78,107.14Z"></path><path class="cls-BMGM-1a-svg-logo-2" d="M90.73,81.89c-2.1.38-6.11.82-8.3-.76C78.35,84,70.41,91.2,66.21,92.66c-5.73,2-16.24-.8-17.5-4.66a24.57,24.57,0,0,0-4.39,9.44C42.45,105,42,111.8,45.48,116.23c2.1,2.65,11.47,11.32,18.46,11.56,14.8.52,21.12-5.79,21.12-5.79.65-.36,5.27,3.25,3.08,5.57-4,4.23-11.07,11.4-21,11.4-6.52-.45-6.33.06-2.9,5,1.88,2.71,2.41,14.48-4,27.53A87.2,87.2,0,0,0,69.1,174a118.86,118.86,0,0,0,15.67-10.55c4.31-3.58,11.48-11.48,12.84-15.06C106.18,130.81,107.83,96.27,90.73,81.89Zm-5.07,36c-5.88,8.39-18.61,8.2-18.61,8.2-4.71-3.1-1-9.62-1-9.62A6,6,0,0,0,68.93,120s3.61.26,4-1.07,4.59-3.13,6.59-2.35a2.1,2.1,0,0,1,3-1.23,7.54,7.54,0,0,1,1.67-3.55A7,7,0,0,1,85.66,117.85ZM85.2,94c-.45-4.21-3.29-4.7-3.29-4.7-5,.13-10,6.91-10,6.91-.13,2.78-.58,6.59-.58,6.59-3.3-3.49-1.75-8.66-1.75-8.66,1.81-5.81,12.66-9.3,13.05-8.91s2.84.26,3.81,0A9.3,9.3,0,0,1,85.2,94Z"></path></g></g></g></svg> 