<svg width="200" height="200" viewBox="0 0 200 200" fill="none" xmlns="http://www.w3.org/2000/svg">
<path d="M200 0H0V200H200V0Z" fill="#312D2A"/>
<path d="M157.468 108.669C141.189 87.3194 81.6985 86.0164 81.6985 86.0164V60.8579C81.6985 60.8579 104.409 60.8579 113.654 60.8579C122.799 60.8579 128.728 71.1819 124.507 77.9977C120.287 84.8136 112.851 87.0187 112.851 87.0187C122.196 87.8206 141.892 94.6364 141.892 94.6364C150.233 91.6294 162.493 76.4942 155.458 56.1469C148.324 35.7996 112.147 36.0001 112.147 36.0001H49.2402V85.1143C38.8897 84.4127 0 87.8206 0 87.8206C18.8922 86.6178 49.1397 92.1306 49.1397 92.1306V165C49.1397 165 95.7672 165 126.819 165C157.87 165 173.748 130.019 157.468 108.669ZM112.75 141.145C101.596 141.145 82 141.145 82 141.145V101.653L79.0858 95.4383C79.0858 95.4383 124.909 103.457 130.034 119.394C135.159 135.331 124.005 141.145 112.75 141.145Z" fill="#EA0023"/>
</svg>
