<?xml version="1.0" encoding="UTF-8"?> <svg xmlns="http://www.w3.org/2000/svg" xmlns:xlink="http://www.w3.org/1999/xlink" viewBox="0 0 176 176"><defs><style>.cls-1{fill:#0a3532;}.cls-2{fill:#cbb57b;}.cls-3{fill:url(#linear-gradient);}.cls-4{fill:url(#linear-gradient-2);}.cls-5{fill:url(#linear-gradient-3);}.cls-6{fill:url(#linear-gradient-4);}.cls-7{fill:url(#linear-gradient-5);}.cls-8{fill:url(#linear-gradient-6);}.cls-9{fill:url(#linear-gradient-7);}.cls-10{fill:url(#linear-gradient-8);}.cls-11{fill:url(#linear-gradient-9);}.cls-12{fill:url(#linear-gradient-10);}.cls-13{fill:url(#linear-gradient-11);}.cls-14{fill:url(#linear-gradient-12);}</style><linearGradient id="linear-gradient" x1="64.26" y1="131.07" x2="111.57" y2="131.07" gradientUnits="userSpaceOnUse"><stop offset="0" stop-color="#bd9e5e"></stop><stop offset="0.5" stop-color="#e4d6ba"></stop><stop offset="1" stop-color="#bd9e5e"></stop></linearGradient><linearGradient id="linear-gradient-2" x1="82.34" y1="107.17" x2="93.58" y2="107.17" gradientUnits="userSpaceOnUse"><stop offset="0" stop-color="#bd9e5e"></stop><stop offset="0.04" stop-color="#c6ab73"></stop><stop offset="0.1" stop-color="#d1ba8d"></stop><stop offset="0.17" stop-color="#d9c7a1"></stop><stop offset="0.25" stop-color="#dfcfaf"></stop><stop offset="0.34" stop-color="#e3d4b7"></stop><stop offset="0.5" stop-color="#e4d6ba"></stop><stop offset="0.66" stop-color="#e3d4b7"></stop><stop offset="0.75" stop-color="#dfcfaf"></stop><stop offset="0.83" stop-color="#d9c7a1"></stop><stop offset="0.9" stop-color="#d1ba8d"></stop><stop offset="0.96" stop-color="#c6ab73"></stop><stop offset="1" stop-color="#bd9e5e"></stop></linearGradient><linearGradient id="linear-gradient-3" x1="58.99" y1="61.63" x2="66.39" y2="61.63" gradientUnits="userSpaceOnUse"><stop offset="0" stop-color="#bd9e5e"></stop><stop offset="1" stop-color="#bd9e5e"></stop></linearGradient><linearGradient id="linear-gradient-4" x1="71.56" y1="61.63" x2="78.97" y2="61.63" gradientUnits="userSpaceOnUse"><stop offset="0" stop-color="#c1a467"></stop><stop offset="1" stop-color="#cfb788"></stop></linearGradient><linearGradient id="linear-gradient-5" x1="84.14" y1="61.63" x2="91.55" y2="61.63" gradientUnits="userSpaceOnUse"><stop offset="0" stop-color="#ddcca9"></stop><stop offset="0.31" stop-color="#e1d1b2"></stop><stop offset="0.5" stop-color="#e4d6ba"></stop><stop offset="0.69" stop-color="#e1d1b2"></stop><stop offset="1" stop-color="#ddcca9"></stop></linearGradient><linearGradient id="linear-gradient-6" x1="96.72" y1="61.63" x2="104.13" y2="61.63" gradientUnits="userSpaceOnUse"><stop offset="0" stop-color="#cfb788"></stop><stop offset="1" stop-color="#c3a66b"></stop></linearGradient><linearGradient id="linear-gradient-7" x1="109.3" y1="61.63" x2="116.71" y2="61.63" xlink:href="#linear-gradient-3"></linearGradient><linearGradient id="linear-gradient-8" x1="59.58" y1="61.34" x2="116.53" y2="61.34" xlink:href="#linear-gradient"></linearGradient><linearGradient id="linear-gradient-9" x1="59.1" y1="45.89" x2="117.01" y2="45.89" xlink:href="#linear-gradient"></linearGradient><linearGradient id="linear-gradient-10" x1="65.72" y1="83.27" x2="110.4" y2="83.27" xlink:href="#linear-gradient"></linearGradient><linearGradient id="linear-gradient-11" x1="82.6" y1="97.96" x2="93.32" y2="97.96" xlink:href="#linear-gradient"></linearGradient><linearGradient id="linear-gradient-12" x1="70.77" y1="119.78" x2="105.1" y2="119.78" xlink:href="#linear-gradient"></linearGradient></defs><g id="Layer_2" data-name="Layer 2"><g id="Layer_1-2" data-name="Layer 1"><circle class="cls-1" cx="88" cy="88" r="85.5"></circle><path class="cls-2" d="M88,5A83,83,0,1,1,5,88,83.09,83.09,0,0,1,88,5m0-5a88,88,0,1,0,88,88A88,88,0,0,0,88,0Z"></path><rect class="cls-3" x="64.26" y="129.3" width="47.31" height="3.54" rx="1.77"></rect><ellipse class="cls-4" cx="87.96" cy="107.17" rx="5.62" ry="3.31"></ellipse><circle class="cls-5" cx="62.69" cy="61.63" r="3.7"></circle><circle class="cls-6" cx="75.27" cy="61.63" r="3.7"></circle><circle class="cls-7" cx="87.85" cy="61.63" r="3.7"></circle><circle class="cls-8" cx="100.42" cy="61.63" r="3.7"></circle><circle class="cls-9" cx="113" cy="61.63" r="3.7"></circle><path class="cls-10" d="M59.58,51.11q.29,2.72.74,5.32a5.77,5.77,0,1,1,2.73,11c.48,1.43,1,2.82,1.56,4.17H111.5c.56-1.34,1.08-2.73,1.56-4.16a5.78,5.78,0,0,1,.06-11.55,5.85,5.85,0,0,1,2.67.65q.45-2.64.74-5.4Zm15.81,16.3a5.78,5.78,0,1,1,5.77-5.78A5.78,5.78,0,0,1,75.39,67.41Zm12.58,0a5.78,5.78,0,1,1,5.77-5.78A5.78,5.78,0,0,1,88,67.41Zm12.58,0a5.78,5.78,0,1,1,5.77-5.78A5.78,5.78,0,0,1,100.55,67.41Z"></path><path class="cls-11" d="M116.76,48.62c.14-1.8.23-3.62.25-5.46H59.1c0,1.84.11,3.66.25,5.46Z"></path><path class="cls-12" d="M65.72,74.06C71,85.31,79.06,92.48,88.06,92.48s17-7.17,22.34-18.42Z"></path><path class="cls-13" d="M88,94.55a18.37,18.37,0,0,1-5.36-.85c.62,2,1.57,2.74,2,8.51a9.69,9.69,0,0,1,6.66,0c.46-5.77,1.41-6.48,2-8.51A18.37,18.37,0,0,1,88,94.55Z"></path><path class="cls-14" d="M91,112.14a14,14,0,0,1-6.17,0c-1,5.64-4.58,10-14.08,15.28H105.1C95.6,122.14,92,117.78,91,112.14Z"></path></g></g></svg> 